<?xml version="1.0" encoding="us-ascii" standalone="no"?><svg xmlns="http://www.w3.org/2000/svg" xmlns:xlink="http://www.w3.org/1999/xlink" contentStyleType="text/css" height="158px" preserveAspectRatio="none" style="width:306px;height:158px;background:#FFFFFF;" version="1.1" viewBox="0 0 306 158" width="306px" zoomAndPan="magnify"><defs/><g><line style="stroke:#181818;stroke-width:0.5;stroke-dasharray:5.0,5.0;" x1="52" x2="52" y1="38.6211" y2="121.2031"/><line style="stroke:#181818;stroke-width:0.5;stroke-dasharray:5.0,5.0;" x1="263.5" x2="263.5" y1="38.6211" y2="121.2031"/><rect fill="#E2E2F0" height="32.6211" rx="2.5" ry="2.5" style="stroke:#181818;stroke-width:0.5;" width="94" x="5" y="5"/><text fill="#000000" font-family="sans-serif" font-size="14" lengthAdjust="spacing" textLength="80" x="12" y="27.1074">OpenSensor</text><rect fill="#E2E2F0" height="32.6211" rx="2.5" ry="2.5" style="stroke:#181818;stroke-width:0.5;" width="94" x="5" y="120.2031"/><text fill="#000000" font-family="sans-serif" font-size="14" lengthAdjust="spacing" textLength="80" x="12" y="142.3105">OpenSensor</text><rect fill="#E2E2F0" height="32.6211" rx="2.5" ry="2.5" style="stroke:#181818;stroke-width:0.5;" width="73" x="227.5" y="5"/><text fill="#000000" font-family="sans-serif" font-size="14" lengthAdjust="spacing" textLength="59" x="234.5" y="27.1074">Sesame5</text><rect fill="#E2E2F0" height="32.6211" rx="2.5" ry="2.5" style="stroke:#181818;stroke-width:0.5;" width="73" x="227.5" y="120.2031"/><text fill="#000000" font-family="sans-serif" font-size="14" lengthAdjust="spacing" textLength="59" x="234.5" y="142.3105">Sesame5</text><polygon fill="#181818" points="252,67.9121,262,71.9121,252,75.9121,256,71.9121" style="stroke:#181818;stroke-width:1.0;"/><line style="stroke:#181818;stroke-width:1.0;" x1="52" x2="258" y1="71.9121" y2="71.9121"/><text fill="#000000" font-family="sans-serif" font-size="13" lengthAdjust="spacing" textLength="188" x="59" y="66.6494">SSM2_ITEM_DOOR_OPEN (90)</text><polygon fill="#181818" points="63,99.2031,53,103.2031,63,107.2031,59,103.2031" style="stroke:#181818;stroke-width:1.0;"/><line style="stroke:#181818;stroke-width:1.0;stroke-dasharray:2.0,2.0;" x1="57" x2="263" y1="103.2031" y2="103.2031"/><text fill="#000000" font-family="sans-serif" font-size="13" lengthAdjust="spacing" textLength="51" x="69" y="97.9404">Success</text><!--SRC=[yoz8pGjEpIlEBrBGjLC8JYrEp4qrjL883lOrYlSCSVMDT_7t3uht3t3rKz2mDD3aWgfGq0MgzeVh1MeeJKvEBIu60000]--></g></svg>